HIERARCHY
ROOT hip
{
  OFFSET 0 0 0
  CHANNELS 6 Xposition Yposition Zposition Zrotation Yrotation Xrotation
  JOINT abdomen
  {
    OFFSET 0 20.6881 -0.73152
    CHANNELS 3 Zrotation Xrotation Yrotation
    JOINT chest
    {
      OFFSET 0 11.7043 -0.48768
      CHANNELS 3 Zrotation Xrotation Yrotation
      JOINT neck
      {
        OFFSET 0 22.1894 -2.19456
        CHANNELS 3 Zrotation Xrotation Yrotation
        JOINT head
        {
          OFFSET -0.24384 7.07133 1.2192
          CHANNELS 3 Zrotation Xrotation Yrotation
          JOINT leftEye
          {
            OFFSET 4.14528 8.04674 8.04672
            CHANNELS 3 Zrotation Xrotation Yrotation
            End Site
            {
              OFFSET 1 0 0
            }
          }
          JOINT rightEye
          {
            OFFSET -3.6576 8.04674 8.04672
            CHANNELS 3 Zrotation Xrotation Yrotation
            End Site
            {
              OFFSET 1 0 0
            }
          }
        }
      }
      JOINT rCollar
      {
        OFFSET -2.68224 19.2634 -4.8768
        CHANNELS 3 Zrotation Xrotation Yrotation
        JOINT rShldr
        {
          OFFSET -8.77824 -1.95073 1.46304
          CHANNELS 3 Zrotation Xrotation Yrotation
          JOINT rForeArm
          {
            OFFSET -28.1742 -1.7115 0.48768
            CHANNELS 3 Zrotation Xrotation Yrotation
            JOINT rHand
            {
              OFFSET -22.5879 0.773209 7.07136
              CHANNELS 3 Zrotation Xrotation Yrotation
              JOINT rThumb1
              {
                OFFSET -1.2192 -0.487915 3.41376
                CHANNELS 3 Zrotation Xrotation Yrotation
                JOINT rThumb2
                {
                  OFFSET -3.37035 -0.52449 3.41376
                  CHANNELS 3 Zrotation Xrotation Yrotation
                  End Site
                  {
                    OFFSET -1.78271 -1.18214 1.43049
                  }
                }
              }
              JOINT rIndex1
              {
                OFFSET -7.75947 0.938293 5.60832
                CHANNELS 3 Zrotation Xrotation Yrotation
                JOINT rIndex2
                {
                  OFFSET -2.54057 -0.884171 1.56538
                  CHANNELS 3 Zrotation Xrotation Yrotation
                  End Site
                  {
                    OFFSET -1.62519 -0.234802 1.16502
                  }
                }
              }
              JOINT rMid1
              {
                OFFSET -8.24714 1.18213 3.41376
                CHANNELS 3 Zrotation Xrotation Yrotation
                JOINT rMid2
                {
                  OFFSET -3.10165 -0.590103 1.0647
                  CHANNELS 3 Zrotation Xrotation Yrotation
                  End Site
                  {
                    OFFSET -2.48547 -0.328903 0.83742
                  }
                }
              }
              JOINT rRing1
              {
                OFFSET -8.82822 0.546677 1.51678
                CHANNELS 3 Zrotation Xrotation Yrotation
                JOINT rRing2
                {
                  OFFSET -2.60934 -0.819778 -0.0198488
                  CHANNELS 3 Zrotation Xrotation Yrotation
                  End Site
                  {
                    OFFSET -2.33842 -0.294052 0.168128
                  }
                }
              }
              JOINT rPinky1
              {
                OFFSET -8.27202 -0.0477905 -0.4584
                CHANNELS 3 Zrotation Xrotation Yrotation
                JOINT rPinky2
                {
                  OFFSET -1.82734 -0.647385 -0.700984
                  CHANNELS 3 Zrotation Xrotation Yrotation
                  End Site
                  {
                    OFFSET -1.69225 -0.51767 -0.607171
                  }
                }
              }
            }
          }
        }
      }
      JOINT lCollar
      {
        OFFSET 2.68224 19.2634 -4.8768
        CHANNELS 3 Zrotation Xrotation Yrotation
        JOINT lShldr
        {
          OFFSET 8.77824 -1.95073 1.46304
          CHANNELS 3 Zrotation Xrotation Yrotation
          JOINT lForeArm
          {
            OFFSET 28.1742 -1.7115 0.48768
            CHANNELS 3 Zrotation Xrotation Yrotation
            JOINT lHand
            {
              OFFSET 22.5879 0.773209 7.07136
              CHANNELS 3 Zrotation Xrotation Yrotation
              JOINT lThumb1
              {
                OFFSET 1.2192 -0.487915 3.41376
                CHANNELS 3 Zrotation Xrotation Yrotation
                JOINT lThumb2
                {
                  OFFSET 3.37035 -0.52449 3.41376
                  CHANNELS 3 Zrotation Xrotation Yrotation
                  End Site
                  {
                    OFFSET 1.78271 -1.18214 1.43049
                  }
                }
              }
              JOINT lIndex1
              {
                OFFSET 7.75947 0.938293 5.60832
                CHANNELS 3 Zrotation Xrotation Yrotation
                JOINT lIndex2
                {
                  OFFSET 2.54057 -0.884171 1.56538
                  CHANNELS 3 Zrotation Xrotation Yrotation
                  End Site
                  {
                    OFFSET 1.62519 -0.234802 1.16502
                  }
                }
              }
              JOINT lMid1
              {
                OFFSET 8.24714 1.18213 3.41376
                CHANNELS 3 Zrotation Xrotation Yrotation
                JOINT lMid2
                {
                  OFFSET 3.10165 -0.590103 1.0647
                  CHANNELS 3 Zrotation Xrotation Yrotation
                  End Site
                  {
                    OFFSET 2.48547 -0.328903 0.83742
                  }
                }
              }
              JOINT lRing1
              {
                OFFSET 8.82822 0.546677 1.51678
                CHANNELS 3 Zrotation Xrotation Yrotation
                JOINT lRing2
                {
                  OFFSET 2.60934 -0.819778 -0.0198488
                  CHANNELS 3 Zrotation Xrotation Yrotation
                  End Site
                  {
                    OFFSET 2.33842 -0.294052 0.168128
                  }
                }
              }
              JOINT lPinky1
              {
                OFFSET 8.27202 -0.0477905 -0.4584
                CHANNELS 3 Zrotation Xrotation Yrotation
                JOINT lPinky2
                {
                  OFFSET 1.82734 -0.647385 -0.700984
                  CHANNELS 3 Zrotation Xrotation Yrotation
                  End Site
                  {
                    OFFSET 1.69225 -0.51767 -0.607171
                  }
                }
              }
            }
          }
        }
      }
    }
  }
  JOINT rButtock
  {
    OFFSET -8.77824 4.35084 1.2192
    CHANNELS 3 Zrotation Xrotation Yrotation
    JOINT rThigh
    {
      OFFSET 0 -1.70687 -2.19456
      CHANNELS 3 Zrotation Xrotation Yrotation
      JOINT rShin
      {
        OFFSET 0 -36.8199 0.73152
        CHANNELS 3 Zrotation Xrotation Yrotation
        JOINT rFoot
        {
          OFFSET 0.73152 -45.1104 -5.12064
          CHANNELS 3 Zrotation Xrotation Yrotation
          End Site
          {
            OFFSET -1.1221 -3.69964 12.103
          }
        }
      }
    }
  }
  JOINT lButtock
  {
    OFFSET 8.77824 4.35084 1.2192
    CHANNELS 3 Zrotation Xrotation Yrotation
    JOINT lThigh
    {
      OFFSET 0 -1.70687 -2.19456
      CHANNELS 3 Zrotation Xrotation Yrotation
      JOINT lShin
      {
        OFFSET 0 -36.8199 0.73152
        CHANNELS 3 Zrotation Xrotation Yrotation
        JOINT lFoot
        {
          OFFSET -0.73152 -45.1104 -5.12064
          CHANNELS 3 Zrotation Xrotation Yrotation
          End Site
          {
            OFFSET 1.1221 -3.69964 12.103
          }
        }
      }
    }
  }
}
MOTION
Frames:	4
Frame Time:	0.03333
21.9488 66.5594 -3.8038000000000003 175.95844 35.422856 -175.768414 -16.028183 7.073424 48.719432 0.122339 -11.965063 -61.037567 -11.940539 27.110852 -28.134919 27.134778 -22.921738 -12.808834 -38.007126 1.460778 -4.239845 2.011044 0.232597 13.193706 -1.423702 -20.441138 -3.019816 0.397733 -61.099426 -70.058228 157.615277 83.914041 -114.017139 -10.729114 35.26104 6.568082 3.757208 -11.061786 -3.228802 32.702299 -56.065045 -30.766719 172.644355 -73.883741 121.349783 33.203219 3.527186 -20.738774 -142.005493 36.450182 134.363302 -166.783818 -15.156998 148.661494 -146.838981 -3.846095 -177.243958 2.978281 0.503566 -3.908546 -31.590918 -38.583142 -32.493669 -140.184587 7.081863 -144.282771 -3.044394 -61.522835 12.266857 89.576072 -24.650544 122.084327 -3.236583 -3.124021 73.24455 -158.081889 -34.483393 -137.927761 97.400758 36.978593 -52.83055 -27.800408 -33.158162 -29.799632 149.987583 -11.685184 -126.408999 167.496276 -6.544796 -132.275076 -168.85463 -65.550695 -138.030234 -90.175608 -77.265972 -70.757868 150.937392 -1.224936 -175.223859 156.178188 -38.032243 176.272062 97.141451 -49.36597 79.95296 122.762426 -3.385948 109.398481 -84.761704 40.271321 -54.74242 111.745109 -15.644272 -36.339374 -77.670123 21.666079 -12.434216 102.481877 -58.772201 -156.632445 -3.568605 5.117487 -3.925866 3.973991 -0.25656 92.763605 50.484041 6.469059 144.461047 90.906783 9.696156 148.723681
22.428600000000003 66.5087 -3.7062999999999997 175.701448 35.194758 -175.837686 -12.129197 5.192774 -97.119226 5.472823 5.569131 83.941928 -13.901371 29.126327 -41.314022 34.216443 -16.239142 0.421844 -39.17178 1.281889 -3.601733 1.894553 0.20492 12.34541 -2.188543 -13.000987 -1.469069 -97.089471 -25.957189 -159.963171 -10.31789 -26.516893 -78.970773 155.063447 -45.03712 139.234075 80.043674 -53.159963 36.222512 -145.868799 -49.025813 155.023671 -52.629469 48.099257 36.460827 -6.401874 -16.520175 4.977439 -159.228089 -10.938618 148.449264 -160.422879 -5.603772 148.150968 -146.679495 -5.401022 -176.192865 -162.796608 -0.264095 177.084853 -12.416825 -22.091447 -14.156699 -19.2739 -42.897408 -23.157315 0.93079 -1.109717 -0.038387 -74.992491 24.958521 -3.259098 -80.896153 -34.946505 -82.029486 147.502612 70.546875 -125.988975 175.72293 -8.750347 -89.161059 141.625631 15.104701 -72.029201 149.500524 -9.888198 -125.85842 167.816687 -6.940873 -131.730989 43.656865 52.539941 -32.379147 -16.050112 -11.066761 3.801112 5.620871 -28.18533 2.946418 145.495491 -48.775656 173.908625 9.034968 21.486381 -4.652378 121.611937 0.776118 159.24072 -114.949901 65.529485 -53.944388 141.497095 1.679346 -92.109751 -78.331253 -19.182884 1.116459 48.587319 -59.340384 148.060653 176.805678 71.225143 3.373438 -169.752255 75.675168 -101.50879 -49.12185 -9.402361 -22.892573 117.580172 -13.512917 162.399543
22.8385 66.6756 -3.6329000000000002 175.862681 36.342715 -175.711318 -16.680092 4.797073 98.803859 -7.368271 -8.547418 -112.328918 -12.138338 42.322122 -125.139269 36.877655 35.215744 69.252864 -37.617862 2.516932 -7.380627 1.614135 0.174758 12.357587 1.940961 -62.485878 -10.620933 -179.947329 28.435065 -123.579388 -17.540974 -70.555466 20.298092 -5.821181 22.523823 5.508903 173.80955 -19.425448 93.092371 -174.729698 0.571632 104.701073 -163.333681 -45.722499 133.323423 59.784983 -88.609443 -5.135515 -90.645665 64.626081 83.693826 -171.487826 -16.934081 145.188323 -67.351963 74.564302 82.310555 8.747729 0.185909 1.89717 8.306329 16.752644 1.30441 -154.152859 34.899137 -150.901032 1.146349 0.672461 0.083584 -76.036146 15.683851 -4.709313 128.625672 33.567803 -86.309609 -96.260021 -66.772151 -81.231402 167.283266 -1.391237 -88.282938 125.646072 14.986843 -56.389348 108.98384 37.945217 -94.623655 90.238335 54.409171 -54.642334 -81.863008 -81.354824 -55.785556 94.358019 64.736961 -77.427325 10.814447 23.473731 -14.647535 -14.087407 13.578933 -1.635455 -18.207895 82.480428 -3.081916 3.262406 -2.114814 -32.111742 44.342288 17.96285 43.727659 -105.95164 -18.964204 -0.0 67.137657 30.992263 -53.220435 170.795581 -34.358369 19.148437 -176.613546 71.91235 -2.925452 -178.959714 75.333193 -180.0 -8.534658 -43.984572 -145.713844 -86.289175 -22.263236 -17.840075
23.2058 66.6499 -3.6131 176.312064 36.957972 -175.529812 -13.943745 7.575273 -0.0 7.250575 -8.68469 -12.016865 8.452554 33.617019 93.565433 -38.76054 11.80839 -138.700529 -35.61313 3.513244 -10.908524 0.231429 0.033951 16.691561 -13.625284 34.307786 12.070717 68.291868 5.802174 26.426599 80.52473 -32.97276 82.582553 -129.973004 72.478568 113.952009 -171.690271 -5.343726 94.471128 136.300166 -55.145055 107.214512 -48.696521 47.091402 33.380038 88.988757 -52.882275 55.803155 -34.682456 55.838271 28.677998 -166.073746 -3.741252 141.462412 -76.492103 -70.086135 -90.885931 -141.65238 -50.580562 -166.242755 22.494214 46.91315 0.792278 -1.509181 9.568838 6.34384 157.766657 -65.583039 -176.679486 -98.327122 38.088187 112.230769 -164.549225 -20.312347 -98.726149 -166.828443 -16.012334 -143.046835 96.137108 36.00574 -52.30838 -19.688202 -28.339949 -30.501752 31.866915 37.318048 -24.753729 169.720566 -8.170149 -102.239618 -173.010785 -66.161519 -139.355633 169.465878 -1.407993 -140.798364 93.015728 -78.381662 104.184733 -13.703411 28.102556 7.716722 134.015625 -35.005397 115.314903 51.197591 -14.677894 48.380886 -7.755368 -6.370169 -0.0 -26.164895 -58.842074 -29.861005 -27.770349 76.138322 -67.667236 17.977126 -21.116342 115.745202 -0.076829 3.895266 1.130809 -0.34304 0.428602 93.173665 46.472614 -10.22753 -19.323306 101.797206 -40.426984 14.247988
